<svg version="1.2" xmlns="http://www.w3.org/2000/svg" viewBox="237.48 143.88 164.95 164.23"><style>.a{fill:#2cc55e}</style><path class="a" d="m296.6 146.3c-0.8 1.2-2.9 5.8-4.6 10.2-1.8 4.4-8.8 23.1-15.7 41.5-6.9 18.4-18.5 50.1-25.9 70.5-7.4 20.4-13.2 37.6-12.9 38.2 0.4 1 5.2 1.3 19 1.3h18.5c4.1-12.8 7-21.1 9.1-26.8l3.9-10.2c51.9 0 54 0.1 54.4 1.7 0.3 1 0.9 5.1 1.3 9.1 0.4 4 0.9 7.2 1 7.2 0.2 0 7.4-4.4 16-9.9 8.7-5.4 20.4-12.8 26-16.5 5.7-3.6 10.1-6.9 9.9-7.4-0.2-0.4-4.3-3.2-9.2-6.3-4.9-3.1-16.6-10.2-25.9-15.7-9.4-5.5-17.3-9.9-17.8-9.6-0.4 0.2-0.7 4.7-0.7 9.9v9.5h-45c2.5-8.1 6.3-19.3 10-30 3.7-10.7 7.6-21.6 8.6-24.3 1.1-2.6 2.1-4.7 2.4-4.7 0.3-0.1 3.4 7.7 6.9 17.2 3.5 9.5 7.1 18.6 7.9 20.3l1.6 3c1.2-8.5 1.8-11.2 2.1-11.5 0.3-0.3 2.2 0.3 4.3 1.3 2 1 9.8 5.6 17.2 10.3 7.4 4.6 14.1 8.4 14.7 8.4 0.9 0 1.1-0.8 0.7-2.3-0.4-1.2-7.7-21.2-16.3-44.5l-15.6-42.3c-44.2 0.1-44.5 0.1-45.9 2.3zm79.8 130.4c-6 3.6-12.4 7.7-14.2 9-1.7 1.3-3.4 3-3.7 3.6-0.3 0.7 0.8 5.2 2.5 10l3 8.8c29.4 0 38.2-0.3 38.4-0.8 0.2-0.4-2.4-8.4-5.8-17.7-3.4-9.4-6.5-17.6-6.9-18.3-0.4-0.6-1.1-1.2-1.5-1.2-0.5 0-5.8 3-11.8 6.6z"/></svg>