<svg xmlns="http://www.w3.org/2000/svg" shape-rendering="geometricPrecision" viewBox="356 312 553 222.45">
  <path fill="#22C55E" fill-rule="evenodd" d="M613.8 312c1.7 0 4.9.7 7 1.6 2 .8 5 2.7 6.5 4.2 1.6 1.5 3.5 3.9 4.3 5.4.8 1.6 1.4 4.5 1.4 6.5 0 2.1-1 5.8-2.2 8.3-1.6 3.2-3.6 5.2-6.8 7-3.3 1.8-6 2.4-10 2.4-3.4 0-7-.7-9.4-1.9-2.2-1.1-5.1-3.5-6.5-5.4-1.9-2.6-2.7-4.9-2.9-9-.2-4.4.2-6.5 2-9.6 1.6-2.9 3.9-4.8 7.8-6.8 3-1.5 7-2.7 8.8-2.7m-152.3 9 6.6 18.3c3.7 10 10.4 28.1 14.9 40.2s8.9 23.9 9.6 26.2c1.1 3.4 1.1 4.3.2 4.3-.7 0-4.9-2.3-9.3-5.1s-12.2-7.7-17.4-10.8c-7.7-4.6-9.5-5.3-10.2-4.1-.5.8-.9 4-.9 7-.1 5.2-.1 5.4-1.5 3-.7-1.4-4.3-10.8-8-21-3.6-10.2-6.9-18.8-7.3-19.2s-5.1 11.8-10.4 27-9.9 28.9-10.8 33.2h45v-10c0-5.5.4-9.9.9-9.8.4.2 12.6 7.3 27 15.8s26.1 15.8 26.1 16.2c0 .5-3.9 3.3-8.7 6.4-4.9 3-16.6 10.4-26 16.5-9.5 6-17.5 10.9-17.8 10.9s-.5-1.9-.5-4.3c0-2.3-.3-6.3-1.5-13.7H407l-2.9 7.2c-1.6 4-4.7 12.4-10.6 29.8h-18.7c-14.4 0-18.8-.3-18.8-1.3 0-.6 7.4-21.5 16.5-46.2 9.1-24.8 18.6-50.4 21-57s8.3-22.3 13.1-35c4.7-12.6 9.1-23.3 9.8-23.7.6-.4 11-.8 45.1-.8M703 361.2c11.9.3 12.8.5 18 3.5 3 1.7 8.1 5.8 17 15.3l.5-17.5 8-.3c4.4-.2 11.7-.1 24.5.8l-.5 133.5-2.8 6.5c-1.5 3.6-4.6 9-7 12s-7.2 7.4-10.7 9.8c-3.6 2.4-10.1 5.5-14.5 7-7.5 2.5-9 2.7-25.5 2.6-16.3-.1-18-.3-25-2.8-4.1-1.5-9.9-4.1-12.9-5.9-2.9-1.8-6.7-4.8-8.5-6.8-1.7-2-4.5-6.3-6.3-9.5s-3.2-6.2-3.3-6.7c0-.4 1.7-1.1 3.8-1.7 2-.5 8.9-2 26.7-5.7l5.5 5.7c4.6 4.8 6.4 5.9 11 7 3.1.7 8.5 1.1 12.5.8 3.9-.3 8.6-1.3 10.5-2.3 1.9-.9 4.8-2.9 6.3-4.4 1.6-1.4 3.5-3.8 4.3-5.4.8-1.5 1.6-5.1 1.9-8 .2-2.8.7-9.3 1.5-23.2l-5.7 6.1c-3.6 3.7-8.1 7.1-11.8 9-5.7 2.7-6.7 2.9-18.5 2.9-10.5 0-13.5-.4-18.5-2.3-3.3-1.2-8.7-4.4-12-7s-7.7-7-9.7-9.7c-2.1-2.8-5.4-9.3-11.2-24l-.1-16.5c0-14.7.3-17.3 2.3-23.5 1.3-3.9 3.4-9.3 4.7-12 1.3-2.8 4.8-7.7 7.7-10.9s7.3-7.3 9.8-9 7-4.1 10-5.4c4.9-2 6.8-2.2 18-2m-10 29.5c-1.9 1.1-4.6 3.4-6 4.9-1.4 1.6-3.5 4.9-4.8 7.4-1.2 2.5-2.7 7.4-3.2 11-.8 4.8-.8 8.3.1 13.5.7 3.9 2.3 9 3.7 11.5 1.3 2.5 3.3 5.6 4.5 6.8 1.2 1.3 4.2 3.6 6.7 5 3.4 1.9 5.9 2.6 10 2.6s6.6-.7 10-2.6c2.5-1.4 5.5-3.7 6.7-5 1.2-1.2 3.2-4.3 4.5-6.8 1.4-2.5 3-7.6 3.7-11.5 1-5.5 1-8.5 0-14-.7-3.9-2.3-9-3.7-11.5-1.3-2.5-3.3-5.6-4.5-6.8-1.2-1.3-4-3.4-6.2-4.7s-5.8-2.5-8-2.8-5.3-.2-7 .2c-1.6.4-4.6 1.6-6.5 2.8m170-29.6c4.1-.1 10.2.4 13.5 1s7.8 2 10 3.2c2.2 1.1 6.2 4.1 8.9 6.6 2.6 2.5 6.1 7.1 7.6 10.1s3.5 9 4.4 13.2c1.3 6.4 1.6 15.1 1.6 89.8h-33.5l-.7-37.7c-.4-20.8-1.2-39.8-1.8-42.3-.6-2.6-2.6-6.3-4.8-8.9-2-2.4-4.9-5-6.4-5.7-1.6-.8-5.3-1.4-8.3-1.4s-7.2.7-9.2 1.6c-2.1.9-4.9 2.5-6.3 3.6s-3.6 3.7-5 5.7c-2.3 3.4-2.4 4.5-3.1 25.1-.4 11.8-.8 30.2-.9 60h-35v-61c0-53.3.2-61.1 1.5-61.5.8-.3 6.8-.5 13.3-.5 6.4 0 13.2.3 18.2 1.5v8.2c0 4.6.2 8.3.5 8.3.2 0 3.8-3.4 8-7.5 6.4-6.4 8.4-7.8 13.8-9.4 3.7-1.2 9.3-2 13.7-2M538 321h35v164h-35zm93 41v123h-17c-16.8 0-17 0-17.5-2.3-.3-1.2-.5-27.8-.5-59.2s.3-58 .6-59.3c.6-2.2.8-2.2 34.4-2.2m-123.8 85c.4 0 1.3 1.2 1.9 2.7.6 1.6 3.5 9.3 6.4 17.3s5.6 15.3 5.9 16.2c.6 1.7-.8 1.8-37.9 1.9l-2.7-7.3c-1.5-4-2.9-8.3-3.2-9.6-.5-1.7.1-2.8 2.7-4.6 1.7-1.3 8.4-5.6 14.7-9.5s11.8-7.1 12.2-7.1" style="fill:#22C55E"/>
</svg>